# xmcd
#
# Track frame offsets: 
#        150
#        19091
#        35680
#        57942
#        74646
#        92247
#        111379
#        124858
#        145774
#        164786
#
# Disc length: 2474 seconds
#
# Revision: 2
# Processed by: cddbd v1.5.2PL0 Copyright (c) Steve Scherf et al.
# Submitted via: ExactAudioCopy v0.99pb4
#
DISCID=9909a80a
DTITLE=Mighty Joe Young - Mighty Man
DYEAR=1997
DGENRE=Blues
TTITLE0=Starvation
TTITLE1=Mighty Man
TTITLE2=Turning Point
TTITLE3=Got My Mind On My Woman
TTITLE4=Got A Hold On Me
TTITLE5=Bring It On
TTITLE6=End Of The Line
TTITLE7=Ain't Goin' For That
TTITLE8=Wishy Washy Woman
TTITLE9=On The Move Again
EXTD=
EXTT0=
EXTT1=
EXTT2=
EXTT3=
EXTT4=
EXTT5=
EXTT6=
EXTT7=
EXTT8=
EXTT9=
PLAYORDER=
